<svg width="77" height="79" viewBox="0 0 77 79" fill="none" xmlns="http://www.w3.org/2000/svg">
<ellipse cx="38.0498" cy="39.5" rx="38.0498" ry="39.5" fill="#0F55C7"/>
<path d="M61.3786 30.4152C46.1209 15.4277 23.8901 21.4468 14.6818 26.3297C11.372 29.8286 12.9562 31.7482 14.1621 32.2707C36.3983 18.991 54.5583 29.4611 60.8588 36.3561C64.8168 35.4158 62.8545 32.0037 61.3786 30.4152Z" fill="white"/>
<path d="M60.2876 43.2992C45.5311 30.6042 24.3264 35.4013 15.5686 39.3868C12.4392 42.2774 13.9752 43.8995 15.1344 44.3492C36.2672 33.4806 53.7524 42.4289 59.8535 48.2616C63.6302 47.5173 61.7166 44.6432 60.2876 43.2992Z" fill="white"/>
<path d="M58.3019 53.6852C43.9533 44.1496 23.9711 47.5454 15.7736 50.4352C12.8849 52.5562 14.3868 53.7718 15.4988 54.1146C35.2451 46.2125 52.0786 52.9887 58.0271 57.3645C61.5891 56.8414 59.6945 54.6937 58.3019 53.6852Z" fill="white"/>
</svg>
