<svg width="60" height="23" viewBox="0 0 60 23" fill="none" xmlns="http://www.w3.org/2000/svg">
<path d="M0 11.6592L3.11967 11.2347C3.29493 12.3162 3.77982 13.145 4.57435 13.7212C5.38055 14.2973 6.50223 14.5854 7.93938 14.5854C9.38822 14.5854 10.4632 14.3327 11.1642 13.8273C11.8653 13.3118 12.2158 12.7104 12.2158 12.0231C12.2158 11.4065 11.9062 10.9213 11.2869 10.5676C10.8546 10.325 9.77964 10.0167 8.06207 9.64272C5.7486 9.13733 4.14203 8.7027 3.24235 8.33883C2.35436 7.96484 1.67668 7.45441 1.20931 6.80751C0.753628 6.15052 0.525787 5.42782 0.525787 4.63942C0.525787 3.92178 0.712733 3.25972 1.08663 2.65326C1.4722 2.0367 1.99215 1.52626 2.64646 1.12195C3.1372 0.808614 3.80319 0.545814 4.64445 0.333553C5.49739 0.111184 6.40876 0 7.37854 0C8.83906 0 10.1185 0.181938 11.2168 0.545814C12.3268 0.90969 13.1447 1.40497 13.6705 2.03164C14.1962 2.64821 14.5585 3.47704 14.7571 4.51813L11.6725 4.882C11.5323 4.05317 11.1233 3.40628 10.4456 2.94133C9.77964 2.47638 8.83322 2.2439 7.60638 2.2439C6.15755 2.2439 5.1235 2.45111 4.50424 2.86552C3.88498 3.27994 3.57535 3.76511 3.57535 4.32103C3.57535 4.6748 3.70388 4.99319 3.96093 5.2762C4.21798 5.56933 4.62108 5.81191 5.17024 6.00396C5.48571 6.10503 6.4146 6.33751 7.95691 6.70138C10.1886 7.21687 11.7426 7.6414 12.6189 7.97495C13.5069 8.2984 14.2021 8.77346 14.7045 9.40013C15.2069 10.0268 15.4581 10.8051 15.4581 11.735C15.4581 12.6447 15.1485 13.5038 14.5292 14.3125C13.9217 15.111 13.0395 15.7326 11.8828 16.1773C10.7261 16.612 9.41743 16.8293 7.95691 16.8293C5.53829 16.8293 3.69219 16.3946 2.41862 15.5254C1.15673 14.6561 0.350525 13.3674 0 11.6592Z" fill="#0F55C7"/>
<path d="M14.9408 22.6664L14.5902 20.1042C15.2796 20.2659 15.8813 20.3467 16.3954 20.3467C17.0965 20.3467 17.6573 20.2457 18.078 20.0435C18.4986 19.8414 18.8433 19.5583 19.112 19.1945C19.3106 18.9216 19.6319 18.2443 20.0759 17.1628C20.1344 17.0112 20.2278 16.7888 20.3564 16.4957L13.2933 0.363876H16.6934L20.5667 9.6882C21.0691 10.8708 21.5189 12.114 21.9162 13.4179C22.2784 12.1646 22.7107 10.9416 23.2131 9.74885L27.1916 0.363876H30.3463L23.2657 16.7383C22.5062 18.5071 21.9162 19.7251 21.4956 20.3922C20.9347 21.2918 20.2921 21.9488 19.5677 22.3632C18.8433 22.7877 17.9786 23 16.9738 23C16.3662 23 15.6885 22.8888 14.9408 22.6664Z" fill="#0F55C7"/>
<path d="M28.9001 16.4654V0.363876H31.7393V2.65326C33.1063 0.884421 35.081 0 37.6632 0C38.7848 0 39.813 0.176884 40.7478 0.530653C41.6942 0.874313 42.4011 1.32916 42.8685 1.89519C43.3358 2.46122 43.663 3.13338 43.8499 3.91167C43.9668 4.41705 44.0252 5.30147 44.0252 6.56493V16.4654H40.8705V6.67106C40.8705 5.55922 40.7478 4.73039 40.5024 4.18457C40.257 3.62865 39.8189 3.18897 39.188 2.86552C38.5687 2.53197 37.8384 2.36519 36.9972 2.36519C35.6535 2.36519 34.4909 2.73412 33.5095 3.47198C32.5397 4.20984 32.0548 5.60976 32.0548 7.67172V16.4654H28.9001Z" fill="#0F55C7"/>
<path d="M56.8979 10.5676L60 10.9163C59.6612 12.766 58.7907 14.2164 57.3886 15.2676C55.9982 16.3087 54.2864 16.8293 52.2534 16.8293C49.7063 16.8293 47.6557 16.1116 46.1017 14.6763C44.5594 13.2309 43.7882 11.1639 43.7882 8.47528C43.7882 6.73676 44.1212 5.21556 44.7872 3.91167C45.4532 2.60778 46.4639 1.63239 47.8193 0.985498C49.1863 0.328499 50.6702 0 52.2709 0C54.2923 0 55.9456 0.444737 57.2309 1.33421C58.5161 2.21358 59.3398 3.46693 59.7021 5.09426L56.635 5.50363C56.3429 4.4221 55.8229 3.60844 55.0751 3.06262C54.339 2.51681 53.4452 2.2439 52.3936 2.2439C50.8046 2.2439 49.5135 2.73918 48.5203 3.72973C47.5272 4.71017 47.0306 6.26675 47.0306 8.39947C47.0306 10.5625 47.5096 12.1343 48.4677 13.1147C49.4258 14.0951 50.676 14.5854 52.2184 14.5854C53.4569 14.5854 54.4909 14.2569 55.3205 13.5999C56.1501 12.9429 56.6759 11.9321 56.8979 10.5676Z" fill="#0F55C7"/>
</svg>
