<svg width="25" height="25" viewBox="0 0 25 25" fill="none" xmlns="http://www.w3.org/2000/svg">
<g clip-path="url(#clip0_34_230)">
<path fill-rule="evenodd" clip-rule="evenodd" d="M24.4409 12.7534C24.4409 11.8692 24.3616 11.019 24.2142 10.2028H12.4697V15.0264H19.1809C18.8918 16.5851 18.0132 17.9058 16.6925 18.7901V21.9189H20.7226C23.0806 19.748 24.4409 16.5511 24.4409 12.7534Z" fill="#4285F4"/>
<path fill-rule="evenodd" clip-rule="evenodd" d="M12.4698 24.94C15.8367 24.94 18.6595 23.8234 20.7227 21.9189L16.6926 18.7901C15.576 19.5383 14.1476 19.9804 12.4698 19.9804C9.22196 19.9804 6.47289 17.7868 5.49229 14.8393H1.32617V18.0702C3.37806 22.1456 7.59519 24.94 12.4698 24.94Z" fill="#34A853"/>
<path fill-rule="evenodd" clip-rule="evenodd" d="M5.49248 14.8394C5.24308 14.0912 5.10137 13.2919 5.10137 12.47C5.10137 11.6482 5.24308 10.8489 5.49248 10.1007V6.86987H1.32636C0.481796 8.55333 0 10.4578 0 12.47C0 14.4823 0.481796 16.3868 1.32636 18.0702L5.49248 14.8394Z" fill="#FBBC05"/>
<path fill-rule="evenodd" clip-rule="evenodd" d="M12.4698 4.95967C14.3007 4.95967 15.9444 5.58884 17.2368 6.8245L20.8134 3.24787C18.6538 1.23567 15.8311 0 12.4698 0C7.59519 0 3.37806 2.79442 1.32617 6.86985L5.49229 10.1007C6.47289 7.15326 9.22196 4.95967 12.4698 4.95967Z" fill="#EA4335"/>
</g>
<defs>
<clipPath id="clip0_34_230">
<rect width="24.94" height="24.94" rx="6.23501" fill="white"/>
</clipPath>
</defs>
</svg>
